<mxfile host="app.diagrams.net" modified="2024-02-19T12:17:30.175Z" agent="Mozilla/5.0 (Windows NT 10.0; Win64; x64) AppleWebKit/537.36 (KHTML, like Gecko) Chrome/121.0.0.0 Safari/537.36" etag="QDOBDddlo-iFWFEHZWv8" version="23.1.5" type="device">
  <diagram name="1 oldal" id="k7qnhddqRf9nzqc2Ejq8">
    <mxGraphModel dx="1434" dy="780" grid="1" gridSize="10" guides="1" tooltips="1" connect="1" arrows="1" fold="1" page="1" pageScale="1" pageWidth="827" pageHeight="1169" math="0" shadow="0">
      <root>
        <mxCell id="0" />
        <mxCell id="1" parent="0" />
        <mxCell id="57wa1wvrsa3jBLDCA3DL-5" value="" style="ellipse;whiteSpace=wrap;html=1;" vertex="1" parent="1">
          <mxGeometry x="110" y="400" width="90" height="40" as="geometry" />
        </mxCell>
        <mxCell id="_uJxmvS0vkBwXmg9_zSi-1" value="" style="rhombus;whiteSpace=wrap;html=1;" parent="1" vertex="1">
          <mxGeometry x="330" y="480" width="140" height="70" as="geometry" />
        </mxCell>
        <mxCell id="_uJxmvS0vkBwXmg9_zSi-2" value="&lt;div&gt;Közlekedik&lt;br&gt;&lt;/div&gt;" style="text;html=1;align=center;verticalAlign=middle;whiteSpace=wrap;rounded=0;" parent="1" vertex="1">
          <mxGeometry x="370" y="500" width="60" height="30" as="geometry" />
        </mxCell>
        <mxCell id="_uJxmvS0vkBwXmg9_zSi-3" value="" style="rounded=0;whiteSpace=wrap;html=1;" parent="1" vertex="1">
          <mxGeometry x="130" y="485" width="120" height="60" as="geometry" />
        </mxCell>
        <mxCell id="_uJxmvS0vkBwXmg9_zSi-4" value="" style="rounded=0;whiteSpace=wrap;html=1;" parent="1" vertex="1">
          <mxGeometry x="550" y="485" width="120" height="60" as="geometry" />
        </mxCell>
        <mxCell id="_uJxmvS0vkBwXmg9_zSi-5" value="Jármű" style="text;html=1;align=center;verticalAlign=middle;whiteSpace=wrap;rounded=0;" parent="1" vertex="1">
          <mxGeometry x="160" y="500" width="60" height="30" as="geometry" />
        </mxCell>
        <mxCell id="_uJxmvS0vkBwXmg9_zSi-6" value="Megálló" style="text;html=1;align=center;verticalAlign=middle;whiteSpace=wrap;rounded=0;" parent="1" vertex="1">
          <mxGeometry x="580" y="500" width="60" height="30" as="geometry" />
        </mxCell>
        <mxCell id="_uJxmvS0vkBwXmg9_zSi-7" value="" style="endArrow=none;html=1;rounded=0;entryX=0;entryY=0.5;entryDx=0;entryDy=0;exitX=1;exitY=0.5;exitDx=0;exitDy=0;" parent="1" source="_uJxmvS0vkBwXmg9_zSi-3" target="_uJxmvS0vkBwXmg9_zSi-1" edge="1">
          <mxGeometry width="50" height="50" relative="1" as="geometry">
            <mxPoint x="250" y="520" as="sourcePoint" />
            <mxPoint x="300" y="470" as="targetPoint" />
          </mxGeometry>
        </mxCell>
        <mxCell id="_uJxmvS0vkBwXmg9_zSi-8" value="" style="endArrow=none;html=1;rounded=0;entryX=0;entryY=0.5;entryDx=0;entryDy=0;exitX=1;exitY=0.5;exitDx=0;exitDy=0;" parent="1" source="_uJxmvS0vkBwXmg9_zSi-1" target="_uJxmvS0vkBwXmg9_zSi-4" edge="1">
          <mxGeometry width="50" height="50" relative="1" as="geometry">
            <mxPoint x="470" y="510" as="sourcePoint" />
            <mxPoint x="520" y="460" as="targetPoint" />
          </mxGeometry>
        </mxCell>
        <mxCell id="_uJxmvS0vkBwXmg9_zSi-10" value="" style="ellipse;whiteSpace=wrap;html=1;" parent="1" vertex="1">
          <mxGeometry x="358" y="620" width="100" height="40" as="geometry" />
        </mxCell>
        <mxCell id="_uJxmvS0vkBwXmg9_zSi-11" value="járatszám" style="text;html=1;align=center;verticalAlign=middle;whiteSpace=wrap;rounded=0;" parent="1" vertex="1">
          <mxGeometry x="378" y="625" width="60" height="30" as="geometry" />
        </mxCell>
        <mxCell id="_uJxmvS0vkBwXmg9_zSi-12" value="típus" style="ellipse;whiteSpace=wrap;html=1;" parent="1" vertex="1">
          <mxGeometry x="20" y="455" width="90" height="30" as="geometry" />
        </mxCell>
        <mxCell id="_uJxmvS0vkBwXmg9_zSi-13" value="gyártmány" style="ellipse;whiteSpace=wrap;html=1;" parent="1" vertex="1">
          <mxGeometry x="10" y="520" width="90" height="30" as="geometry" />
        </mxCell>
        <mxCell id="_uJxmvS0vkBwXmg9_zSi-14" value="" style="ellipse;whiteSpace=wrap;html=1;" parent="1" vertex="1">
          <mxGeometry x="60" y="585" width="100" height="40" as="geometry" />
        </mxCell>
        <mxCell id="_uJxmvS0vkBwXmg9_zSi-15" value="üzemeltető" style="text;html=1;align=center;verticalAlign=middle;whiteSpace=wrap;rounded=0;" parent="1" vertex="1">
          <mxGeometry x="80" y="590" width="60" height="30" as="geometry" />
        </mxCell>
        <mxCell id="_uJxmvS0vkBwXmg9_zSi-16" value="" style="endArrow=none;html=1;rounded=0;entryX=0;entryY=0.25;entryDx=0;entryDy=0;" parent="1" target="_uJxmvS0vkBwXmg9_zSi-3" edge="1">
          <mxGeometry width="50" height="50" relative="1" as="geometry">
            <mxPoint x="110" y="470" as="sourcePoint" />
            <mxPoint x="160" y="420" as="targetPoint" />
          </mxGeometry>
        </mxCell>
        <mxCell id="_uJxmvS0vkBwXmg9_zSi-17" value="" style="endArrow=none;html=1;rounded=0;entryX=0;entryY=0.5;entryDx=0;entryDy=0;" parent="1" target="_uJxmvS0vkBwXmg9_zSi-3" edge="1">
          <mxGeometry width="50" height="50" relative="1" as="geometry">
            <mxPoint x="100" y="535" as="sourcePoint" />
            <mxPoint x="150" y="485" as="targetPoint" />
          </mxGeometry>
        </mxCell>
        <mxCell id="_uJxmvS0vkBwXmg9_zSi-18" value="" style="endArrow=none;html=1;rounded=0;entryX=0.5;entryY=1;entryDx=0;entryDy=0;" parent="1" target="_uJxmvS0vkBwXmg9_zSi-3" edge="1">
          <mxGeometry width="50" height="50" relative="1" as="geometry">
            <mxPoint x="140" y="590" as="sourcePoint" />
            <mxPoint x="190" y="540" as="targetPoint" />
          </mxGeometry>
        </mxCell>
        <mxCell id="_uJxmvS0vkBwXmg9_zSi-19" value="" style="endArrow=none;html=1;rounded=0;exitX=0.5;exitY=0;exitDx=0;exitDy=0;" parent="1" source="_uJxmvS0vkBwXmg9_zSi-3" edge="1">
          <mxGeometry width="50" height="50" relative="1" as="geometry">
            <mxPoint x="110" y="490" as="sourcePoint" />
            <mxPoint x="160" y="440" as="targetPoint" />
          </mxGeometry>
        </mxCell>
        <mxCell id="_uJxmvS0vkBwXmg9_zSi-20" value="" style="endArrow=none;html=1;rounded=0;" parent="1" edge="1">
          <mxGeometry width="50" height="50" relative="1" as="geometry">
            <mxPoint x="120" y="430" as="sourcePoint" />
            <mxPoint x="180" y="430" as="targetPoint" />
            <Array as="points">
              <mxPoint x="160" y="430" />
            </Array>
          </mxGeometry>
        </mxCell>
        <mxCell id="_uJxmvS0vkBwXmg9_zSi-21" value="" style="ellipse;whiteSpace=wrap;html=1;" parent="1" vertex="1">
          <mxGeometry x="660" y="415" width="90" height="40" as="geometry" />
        </mxCell>
        <mxCell id="_uJxmvS0vkBwXmg9_zSi-22" value="" style="ellipse;whiteSpace=wrap;html=1;" parent="1" vertex="1">
          <mxGeometry x="720" y="500" width="90" height="42" as="geometry" />
        </mxCell>
        <mxCell id="_uJxmvS0vkBwXmg9_zSi-23" value="" style="ellipse;whiteSpace=wrap;html=1;" parent="1" vertex="1">
          <mxGeometry x="640" y="580" width="150" height="50" as="geometry" />
        </mxCell>
        <mxCell id="_uJxmvS0vkBwXmg9_zSi-24" value="id" style="text;html=1;align=center;verticalAlign=middle;whiteSpace=wrap;rounded=0;strokeColor=none;" parent="1" vertex="1">
          <mxGeometry x="675" y="420" width="60" height="30" as="geometry" />
        </mxCell>
        <mxCell id="_uJxmvS0vkBwXmg9_zSi-25" value="név" style="text;html=1;align=center;verticalAlign=middle;whiteSpace=wrap;rounded=0;" parent="1" vertex="1">
          <mxGeometry x="735" y="506" width="60" height="30" as="geometry" />
        </mxCell>
        <mxCell id="_uJxmvS0vkBwXmg9_zSi-26" value="akadálymentesített-e?" style="text;html=1;align=center;verticalAlign=middle;whiteSpace=wrap;rounded=0;" parent="1" vertex="1">
          <mxGeometry x="677.5" y="590" width="75" height="35" as="geometry" />
        </mxCell>
        <mxCell id="_uJxmvS0vkBwXmg9_zSi-27" value="" style="endArrow=none;html=1;rounded=0;exitX=0;exitY=0.5;exitDx=0;exitDy=0;entryX=0.5;entryY=1;entryDx=0;entryDy=0;" parent="1" source="_uJxmvS0vkBwXmg9_zSi-23" target="_uJxmvS0vkBwXmg9_zSi-4" edge="1">
          <mxGeometry width="50" height="50" relative="1" as="geometry">
            <mxPoint x="550" y="620" as="sourcePoint" />
            <mxPoint x="610" y="550" as="targetPoint" />
          </mxGeometry>
        </mxCell>
        <mxCell id="_uJxmvS0vkBwXmg9_zSi-30" value="" style="endArrow=none;html=1;rounded=0;exitX=0.75;exitY=0;exitDx=0;exitDy=0;" parent="1" source="_uJxmvS0vkBwXmg9_zSi-4" edge="1">
          <mxGeometry width="50" height="50" relative="1" as="geometry">
            <mxPoint x="670" y="480" as="sourcePoint" />
            <mxPoint x="690" y="455" as="targetPoint" />
          </mxGeometry>
        </mxCell>
        <mxCell id="_uJxmvS0vkBwXmg9_zSi-32" value="" style="endArrow=none;html=1;rounded=0;exitX=1;exitY=0.5;exitDx=0;exitDy=0;" parent="1" source="_uJxmvS0vkBwXmg9_zSi-4" edge="1">
          <mxGeometry width="50" height="50" relative="1" as="geometry">
            <mxPoint x="670" y="570" as="sourcePoint" />
            <mxPoint x="720" y="520" as="targetPoint" />
          </mxGeometry>
        </mxCell>
        <mxCell id="_uJxmvS0vkBwXmg9_zSi-33" value="" style="ellipse;whiteSpace=wrap;html=1;" parent="1" vertex="1">
          <mxGeometry x="280" y="560" width="96" height="42" as="geometry" />
        </mxCell>
        <mxCell id="_uJxmvS0vkBwXmg9_zSi-34" value="" style="ellipse;whiteSpace=wrap;html=1;" parent="1" vertex="1">
          <mxGeometry x="490" y="550" width="100" height="40" as="geometry" />
        </mxCell>
        <mxCell id="_uJxmvS0vkBwXmg9_zSi-35" value="dátum" style="text;html=1;align=center;verticalAlign=middle;whiteSpace=wrap;rounded=0;" parent="1" vertex="1">
          <mxGeometry x="298" y="566" width="60" height="30" as="geometry" />
        </mxCell>
        <mxCell id="_uJxmvS0vkBwXmg9_zSi-36" value="érkezik" style="text;html=1;align=center;verticalAlign=middle;whiteSpace=wrap;rounded=0;" parent="1" vertex="1">
          <mxGeometry x="510" y="555" width="60" height="30" as="geometry" />
        </mxCell>
        <mxCell id="_uJxmvS0vkBwXmg9_zSi-40" value="" style="endArrow=none;html=1;rounded=0;exitX=0.5;exitY=0;exitDx=0;exitDy=0;entryX=0;entryY=1;entryDx=0;entryDy=0;" parent="1" source="_uJxmvS0vkBwXmg9_zSi-33" target="_uJxmvS0vkBwXmg9_zSi-1" edge="1">
          <mxGeometry width="50" height="50" relative="1" as="geometry">
            <mxPoint x="350" y="570" as="sourcePoint" />
            <mxPoint x="370" y="530" as="targetPoint" />
          </mxGeometry>
        </mxCell>
        <mxCell id="_uJxmvS0vkBwXmg9_zSi-41" value="" style="endArrow=none;html=1;rounded=0;exitX=0;exitY=0.5;exitDx=0;exitDy=0;" parent="1" source="_uJxmvS0vkBwXmg9_zSi-34" edge="1">
          <mxGeometry width="50" height="50" relative="1" as="geometry">
            <mxPoint x="480" y="560" as="sourcePoint" />
            <mxPoint x="440" y="530" as="targetPoint" />
          </mxGeometry>
        </mxCell>
        <mxCell id="57wa1wvrsa3jBLDCA3DL-3" value="" style="endArrow=none;html=1;rounded=0;entryX=0.5;entryY=1;entryDx=0;entryDy=0;exitX=0.41;exitY=-0.025;exitDx=0;exitDy=0;exitPerimeter=0;" edge="1" parent="1" source="_uJxmvS0vkBwXmg9_zSi-10" target="_uJxmvS0vkBwXmg9_zSi-1">
          <mxGeometry width="50" height="50" relative="1" as="geometry">
            <mxPoint x="389" y="620" as="sourcePoint" />
            <mxPoint x="439" y="570" as="targetPoint" />
          </mxGeometry>
        </mxCell>
        <mxCell id="57wa1wvrsa3jBLDCA3DL-7" value="rendszám" style="text;html=1;align=center;verticalAlign=middle;whiteSpace=wrap;rounded=0;" vertex="1" parent="1">
          <mxGeometry x="120" y="405" width="60" height="30" as="geometry" />
        </mxCell>
        <mxCell id="57wa1wvrsa3jBLDCA3DL-8" value="" style="endArrow=none;html=1;rounded=0;" edge="1" parent="1">
          <mxGeometry width="50" height="50" relative="1" as="geometry">
            <mxPoint x="690" y="440" as="sourcePoint" />
            <mxPoint x="720" y="440" as="targetPoint" />
            <Array as="points">
              <mxPoint x="700" y="440" />
            </Array>
          </mxGeometry>
        </mxCell>
        <mxCell id="57wa1wvrsa3jBLDCA3DL-9" value="" style="ellipse;whiteSpace=wrap;html=1;" vertex="1" parent="1">
          <mxGeometry x="450" y="605" width="100" height="40" as="geometry" />
        </mxCell>
        <mxCell id="57wa1wvrsa3jBLDCA3DL-10" value="indul" style="text;html=1;align=center;verticalAlign=middle;whiteSpace=wrap;rounded=0;" vertex="1" parent="1">
          <mxGeometry x="470" y="610" width="60" height="30" as="geometry" />
        </mxCell>
        <mxCell id="57wa1wvrsa3jBLDCA3DL-11" value="" style="endArrow=none;html=1;rounded=0;exitX=0;exitY=0.5;exitDx=0;exitDy=0;entryX=0.664;entryY=0.871;entryDx=0;entryDy=0;entryPerimeter=0;" edge="1" parent="1" target="_uJxmvS0vkBwXmg9_zSi-1">
          <mxGeometry width="50" height="50" relative="1" as="geometry">
            <mxPoint x="467" y="614.03" as="sourcePoint" />
            <mxPoint x="438" y="530" as="targetPoint" />
          </mxGeometry>
        </mxCell>
        <mxCell id="57wa1wvrsa3jBLDCA3DL-13" value="" style="ellipse;whiteSpace=wrap;html=1;" vertex="1" parent="1">
          <mxGeometry x="190" y="605" width="150" height="50" as="geometry" />
        </mxCell>
        <mxCell id="57wa1wvrsa3jBLDCA3DL-14" value="akadálymentesített-e?" style="text;html=1;align=center;verticalAlign=middle;whiteSpace=wrap;rounded=0;" vertex="1" parent="1">
          <mxGeometry x="230" y="612.5" width="75" height="35" as="geometry" />
        </mxCell>
        <mxCell id="57wa1wvrsa3jBLDCA3DL-15" value="" style="endArrow=none;html=1;rounded=0;entryX=0.75;entryY=1;entryDx=0;entryDy=0;exitX=0.267;exitY=0.12;exitDx=0;exitDy=0;exitPerimeter=0;" edge="1" parent="1" source="57wa1wvrsa3jBLDCA3DL-13" target="_uJxmvS0vkBwXmg9_zSi-3">
          <mxGeometry width="50" height="50" relative="1" as="geometry">
            <mxPoint x="230" y="600" as="sourcePoint" />
            <mxPoint x="150" y="620" as="targetPoint" />
          </mxGeometry>
        </mxCell>
      </root>
    </mxGraphModel>
  </diagram>
</mxfile>
